<svg xmlns="http://www.w3.org/2000/svg" xmlns:xlink="http://www.w3.org/1999/xlink" viewBox="0 0 431.91 281.23"><defs><style>.cls-1{isolation:isolate;}.cls-2{fill:#b5dfea;}.cls-3{fill:#90cedd;}.cls-14,.cls-3{opacity:0.55;}.cls-4{fill:#d7f0f9;}.cls-5{fill:#0582c1;}.cls-6{fill:#fff;}.cls-7{fill:#79c9e8;}.cls-8{fill:#ffbf4d;}.cls-9{fill:#3fa5d4;}.cls-10{fill:#f98d2b;opacity:0.29;mix-blend-mode:multiply;}.cls-11{fill:#f77e2d;}.cls-12{fill:#49b4d6;}.cls-13{fill:#00668e;}.cls-14{mix-blend-mode:overlay;fill:url(#linear-gradient);}</style><linearGradient id="linear-gradient" x1="212.3" y1="249.02" x2="212.3" y2="224.97" gradientUnits="userSpaceOnUse"><stop offset="0" stop-color="#fff"/><stop offset="0.12" stop-color="#fff" stop-opacity="0.82"/><stop offset="0.3" stop-color="#fff" stop-opacity="0.58"/><stop offset="0.47" stop-color="#fff" stop-opacity="0.37"/><stop offset="0.64" stop-color="#fff" stop-opacity="0.21"/><stop offset="0.78" stop-color="#fff" stop-opacity="0.1"/><stop offset="0.91" stop-color="#fff" stop-opacity="0.02"/><stop offset="1" stop-color="#fff" stop-opacity="0"/></linearGradient></defs><title>Asset 2</title><g class="cls-1"><g id="Layer_2" data-name="Layer 2"><g id="OBJECTS"><path class="cls-2" d="M419,281.23a12.73,12.73,0,0,0,12.73-12.52c.53-34.65,3.32-85.75-61.93-99.88C317,157.39,348.33,63.56,206.14,69.62,104.06,74,131.18,160,51.82,167.18-1,171.94-1.45,238.74.58,269.34a12.73,12.73,0,0,0,12.71,11.89Z"/><path class="cls-3" d="M369.82,168.83C317,157.39,348.33,63.56,206.14,69.62c-24.28,1-41.24,6.7-54.07,14.82,4.32-.57,8.91-1,13.8-1.18C308.06,77.2,276.76,171,329.56,182.47c64.55,14,62.5,64.15,61.94,98.76H419a12.73,12.73,0,0,0,12.73-12.52C432.28,234.06,435.07,183,369.82,168.83Z"/><path class="cls-4" d="M298.25,84.19,130.18,82.58a13,13,0,0,0-13.13,12.88l-1,107.48a13,13,0,0,0,12.88,13.13L297,217.67a13,13,0,0,0,13.13-12.88l1-107.47A13,13,0,0,0,298.25,84.19Z"/><path class="cls-5" d="M311,108l.1-10.63a13,13,0,0,0-12.88-13.13L130.18,82.58a13,13,0,0,0-13.13,12.88L117,106.1Z"/><path class="cls-6" d="M135.75,96.82a3.5,3.5,0,1,1-3.47-3.53A3.51,3.51,0,0,1,135.75,96.82Z"/><path class="cls-7" d="M152.61,97a3.5,3.5,0,1,1-3.47-3.52A3.51,3.51,0,0,1,152.61,97Z"/><path class="cls-8" d="M170.08,97.15a3.5,3.5,0,1,1-3.46-3.53A3.5,3.5,0,0,1,170.08,97.15Z"/><path class="cls-5" d="M180.67,122.35h5.89L196,142l-.42.46,0-20h4.6l-.05,25.54h-5.92l-9.44-19.3.42-.46,0,19.74h-4.6Z"/><path class="cls-5" d="M216.93,142.88a3.9,3.9,0,0,0,1.52-1.57A5,5,0,0,0,219,139l0-7.49a5.06,5.06,0,0,0-.53-2.35,3.86,3.86,0,0,0-1.52-1.58,5,5,0,0,0-4.57,0,3.8,3.8,0,0,0-1.53,1.57,5.2,5.2,0,0,0-.54,2.36v7.48a5,5,0,0,0,.53,2.36,3.8,3.8,0,0,0,1.52,1.58,4.53,4.53,0,0,0,2.28.55A4.59,4.59,0,0,0,216.93,142.88Zm-7.19,4.18a8.08,8.08,0,0,1-3.27-3.31,10.11,10.11,0,0,1-1.15-4.95v-7.24a10.34,10.34,0,0,1,1.17-5,8.17,8.17,0,0,1,3.29-3.3,10.91,10.91,0,0,1,9.79,0,8.17,8.17,0,0,1,3.27,3.32A10.22,10.22,0,0,1,224,131.6l0,7.24a10.11,10.11,0,0,1-1.17,4.94,8,8,0,0,1-3.28,3.3,10.82,10.82,0,0,1-9.79,0Z"/><path class="cls-5" d="M232.56,124.55h4.81L237.32,148h-4.81Zm-7-2.11,18.74,0v4.64l-18.74,0Z"/><path class="cls-5" d="M157.86,165.5l15,0v4.64l-15,0Zm-1.76,0h4.82l0,25.56h-4.82Zm1.74,10.78,13.1,0v4.64l-13.1,0Z"/><path class="cls-5" d="M187.28,186a3.66,3.66,0,0,0,1.52-1.57,5,5,0,0,0,.55-2.35V174.6a4.94,4.94,0,0,0-.53-2.35,3.8,3.8,0,0,0-1.52-1.58,4.53,4.53,0,0,0-2.28-.56,4.59,4.59,0,0,0-2.29.55,3.77,3.77,0,0,0-1.52,1.57,4.94,4.94,0,0,0-.54,2.35l0,7.49a5.1,5.1,0,0,0,.53,2.36,3.86,3.86,0,0,0,1.52,1.58,4.58,4.58,0,0,0,2.28.55A4.49,4.49,0,0,0,187.28,186Zm-7.19,4.19a8.08,8.08,0,0,1-3.27-3.31,10.28,10.28,0,0,1-1.15-4.95V174.7a10.34,10.34,0,0,1,1.17-4.95,8.23,8.23,0,0,1,3.29-3.3,10.82,10.82,0,0,1,9.79,0,8.2,8.2,0,0,1,3.27,3.31,10.18,10.18,0,0,1,1.15,5V182a10.33,10.33,0,0,1-1.17,4.94,8,8,0,0,1-3.29,3.3,10.82,10.82,0,0,1-9.79,0Z"/><path class="cls-5" d="M202.63,190.3a7.4,7.4,0,0,1-3.17-3.26,11.28,11.28,0,0,1-1.08-5.14l0-16.31h4.82l0,16.43a4.62,4.62,0,0,0,1.17,3.41,4.4,4.4,0,0,0,3.32,1.22,4.46,4.46,0,0,0,3.35-1.2,4.69,4.69,0,0,0,1.19-3.41l0-16.44h4.81l0,16.32a11.3,11.3,0,0,1-1.11,5.14,7.44,7.44,0,0,1-3.21,3.24,11.95,11.95,0,0,1-10.1,0Z"/><path class="cls-5" d="M222,165.63l5.89,0,9.47,19.6-.42.45,0-20h4.61l-.06,25.55-5.92,0-9.44-19.3.43-.46,0,19.74H222Z"/><path class="cls-5" d="M249.59,186.61h6.14a5.32,5.32,0,0,0,3.67-1.13,4.07,4.07,0,0,0,1.31-3.23l0-7.53a4.1,4.1,0,0,0-1.3-3.24,5.43,5.43,0,0,0-3.67-1.15h-6.13v-4.64h6a12.66,12.66,0,0,1,5.45,1.09,7.57,7.57,0,0,1,3.43,3.13,9.92,9.92,0,0,1,1.17,5l0,7.24a9.79,9.79,0,0,1-1.14,4.82,7.71,7.71,0,0,1-3.41,3.19,12.13,12.13,0,0,1-5.55,1.13h-6Zm-2.38-20.92H252L252,191.25h-4.81Z"/><polygon class="cls-9" points="181.45 123.27 187.34 123.28 196.8 142.88 196.38 143.34 196.42 123.3 201.03 123.31 200.97 148.85 195.05 148.84 185.62 129.53 186.04 129.08 186 148.82 181.39 148.81 181.45 123.27"/><path class="cls-9" d="M217.7,143.79a3.74,3.74,0,0,0,1.53-1.57,4.94,4.94,0,0,0,.54-2.35v-7.49a5,5,0,0,0-.53-2.36,3.71,3.71,0,0,0-1.52-1.57,4.53,4.53,0,0,0-2.28-.56,4.59,4.59,0,0,0-2.29.55,3.83,3.83,0,0,0-1.52,1.57,4.94,4.94,0,0,0-.54,2.35l0,7.49a5,5,0,0,0,.54,2.36,3.75,3.75,0,0,0,1.51,1.57,5,5,0,0,0,4.57,0ZM210.51,148a8.14,8.14,0,0,1-3.27-3.31,10.28,10.28,0,0,1-1.15-4.95l0-7.24a10.12,10.12,0,0,1,1.17-4.95,8.14,8.14,0,0,1,3.28-3.3,10.82,10.82,0,0,1,9.79,0,8.14,8.14,0,0,1,3.27,3.31,10.06,10.06,0,0,1,1.15,4.95v7.25a10.11,10.11,0,0,1-1.17,4.94,8.17,8.17,0,0,1-3.29,3.3,9.93,9.93,0,0,1-4.89,1.16A10.06,10.06,0,0,1,210.51,148Z"/><path class="cls-9" d="M233.33,125.47h4.82l-.05,23.47h-4.82Zm-7-2.11,18.73,0V128l-18.73,0Z"/><path class="cls-9" d="M158.64,166.42l15,0v4.64l-15,0Zm-1.76,0h4.82L161.64,192h-4.81Zm1.74,10.77,13.09,0v4.64l-13.09,0Z"/><path class="cls-9" d="M188.06,186.93a3.83,3.83,0,0,0,1.52-1.57,4.94,4.94,0,0,0,.54-2.35l0-7.49a5,5,0,0,0-.54-2.36,3.75,3.75,0,0,0-1.51-1.57,5,5,0,0,0-4.57,0,3.74,3.74,0,0,0-1.53,1.57,4.94,4.94,0,0,0-.54,2.35V183a5,5,0,0,0,.53,2.36,3.71,3.71,0,0,0,1.52,1.57,4.53,4.53,0,0,0,2.28.56A4.59,4.59,0,0,0,188.06,186.93Zm-7.19,4.19a8.14,8.14,0,0,1-3.27-3.31,10.06,10.06,0,0,1-1.15-4.95v-7.25a10.11,10.11,0,0,1,1.17-4.94,8.17,8.17,0,0,1,3.29-3.3,9.93,9.93,0,0,1,4.89-1.16,10.06,10.06,0,0,1,4.9,1.18A8.14,8.14,0,0,1,194,170.7a10.28,10.28,0,0,1,1.15,5l0,7.25a10.11,10.11,0,0,1-1.17,4.94,8.14,8.14,0,0,1-3.28,3.3,10.82,10.82,0,0,1-9.79,0Z"/><path class="cls-9" d="M203.41,191.22a7.45,7.45,0,0,1-3.17-3.26,11.05,11.05,0,0,1-1.08-5.14l0-16.32H204L204,183a4.72,4.72,0,0,0,1.17,3.41,4.42,4.42,0,0,0,3.32,1.22,4.47,4.47,0,0,0,3.35-1.21A4.65,4.65,0,0,0,213,183l0-16.44h4.82l0,16.31a11,11,0,0,1-1.11,5.14,7.39,7.39,0,0,1-3.2,3.25,12,12,0,0,1-10.1,0Z"/><polygon class="cls-9" points="222.78 166.55 228.67 166.56 238.14 186.16 237.72 186.62 237.76 166.58 242.36 166.59 242.31 192.13 236.38 192.12 226.95 172.82 227.37 172.36 227.33 192.1 222.73 192.09 222.78 166.55"/><path class="cls-9" d="M250.37,187.53h6.13a5.4,5.4,0,0,0,3.68-1.14,4.09,4.09,0,0,0,1.31-3.23v-7.52a4.08,4.08,0,0,0-1.29-3.24,5.45,5.45,0,0,0-3.67-1.15H250.4v-4.64h6a12.9,12.9,0,0,1,5.46,1.08,7.64,7.64,0,0,1,3.43,3.14,9.89,9.89,0,0,1,1.17,5l0,7.24a9.79,9.79,0,0,1-1.14,4.82,7.76,7.76,0,0,1-3.41,3.19,12.3,12.3,0,0,1-5.56,1.13h-6ZM248,166.6h4.81l-.05,25.56h-4.82Z"/><path class="cls-7" d="M182.22,124.18l5.89,0,9.47,19.6-.42.45,0-20h4.6l-.05,25.54h-5.92l-9.44-19.3.43-.46,0,19.74h-4.6Z"/><path class="cls-7" d="M218.48,144.71a3.77,3.77,0,0,0,1.52-1.57,4.94,4.94,0,0,0,.54-2.35l0-7.49a5.1,5.1,0,0,0-.53-2.36,3.86,3.86,0,0,0-1.52-1.58,4.58,4.58,0,0,0-2.28-.55,4.49,4.49,0,0,0-2.29.55,3.66,3.66,0,0,0-1.52,1.57,5,5,0,0,0-.55,2.35v7.49a4.94,4.94,0,0,0,.53,2.35,3.74,3.74,0,0,0,1.52,1.58,4.53,4.53,0,0,0,2.28.56A4.59,4.59,0,0,0,218.48,144.71Zm-7.19,4.19a8.2,8.2,0,0,1-3.27-3.31,10.18,10.18,0,0,1-1.15-5v-7.24a10.33,10.33,0,0,1,1.17-4.94,8.11,8.11,0,0,1,3.29-3.3,10.82,10.82,0,0,1,9.79,0,8.14,8.14,0,0,1,3.27,3.31,10.28,10.28,0,0,1,1.15,5v7.24a10.34,10.34,0,0,1-1.17,5,8.23,8.23,0,0,1-3.29,3.3,10.82,10.82,0,0,1-9.79,0Z"/><path class="cls-7" d="M234.11,126.38h4.81l0,23.47h-4.82Zm-7-2.1,18.74,0V129l-18.74,0Z"/><path class="cls-7" d="M159.41,167.34l15,0V172l-15,0Zm-1.75,0h4.81l-.05,25.56H157.6Zm1.73,10.78,13.1,0v4.64l-13.1,0Z"/><path class="cls-7" d="M188.83,187.85a3.8,3.8,0,0,0,1.53-1.57,5.18,5.18,0,0,0,.54-2.35v-7.49a5,5,0,0,0-.53-2.36,3.8,3.8,0,0,0-1.52-1.58,4.53,4.53,0,0,0-2.28-.55,4.59,4.59,0,0,0-2.29.54,3.9,3.9,0,0,0-1.52,1.57,5,5,0,0,0-.54,2.36l0,7.49a5.06,5.06,0,0,0,.53,2.35,3.86,3.86,0,0,0,1.52,1.58,5,5,0,0,0,4.57,0ZM181.64,192a8.17,8.17,0,0,1-3.27-3.32,10.22,10.22,0,0,1-1.15-4.95l0-7.24a10.11,10.11,0,0,1,1.17-4.94,8,8,0,0,1,3.28-3.3,10.82,10.82,0,0,1,9.79,0,8.08,8.08,0,0,1,3.27,3.31,10.17,10.17,0,0,1,1.15,4.95v7.24a10.34,10.34,0,0,1-1.17,4.95,8.17,8.17,0,0,1-3.29,3.3,10.91,10.91,0,0,1-9.79,0Z"/><path class="cls-7" d="M204.19,192.14a7.42,7.42,0,0,1-3.18-3.26,11.32,11.32,0,0,1-1.08-5.15l0-16.31h4.81l0,16.44a4.68,4.68,0,0,0,1.17,3.41,4.4,4.4,0,0,0,3.32,1.22,4.47,4.47,0,0,0,3.35-1.21,4.65,4.65,0,0,0,1.19-3.41l0-16.43h4.81l0,16.31a11,11,0,0,1-1.11,5.14,7.47,7.47,0,0,1-3.21,3.25,12,12,0,0,1-10.09,0Z"/><path class="cls-7" d="M223.56,167.47h5.88l9.47,19.6-.42.46,0-20h4.61l-.06,25.54h-5.92l-9.43-19.3.42-.46,0,19.74H223.5Z"/><path class="cls-7" d="M251.14,188.44l6.14,0a5.42,5.42,0,0,0,3.68-1.14,4.09,4.09,0,0,0,1.3-3.23l0-7.52a4.07,4.07,0,0,0-1.3-3.24,5.36,5.36,0,0,0-3.67-1.15h-6.13v-4.64h6a12.52,12.52,0,0,1,5.45,1.08,7.59,7.59,0,0,1,3.43,3.14,9.76,9.76,0,0,1,1.17,5V184a9.86,9.86,0,0,1-1.15,4.81,7.73,7.73,0,0,1-3.41,3.2,12.39,12.39,0,0,1-5.55,1.13l-6,0Zm-2.38-20.92h4.82l-.05,25.56h-4.82Z"/><rect class="cls-8" x="138.08" y="210.43" width="146.86" height="29.86"/><rect class="cls-10" x="138.08" y="210.43" width="146.86" height="7.25"/><polygon class="cls-11" points="150.85 210.43 164.26 210.43 160.66 217.68 147.25 217.68 150.85 210.43"/><polygon class="cls-11" points="181.05 210.43 194.46 210.43 190.87 217.68 177.46 217.68 181.05 210.43"/><polygon class="cls-11" points="211.25 210.43 224.66 210.43 221.06 217.68 207.66 217.68 211.25 210.43"/><polygon class="cls-11" points="241.45 210.43 254.85 210.43 251.26 217.68 237.86 217.68 241.45 210.43"/><polygon class="cls-11" points="284.95 210.43 284.95 210.63 281.45 217.68 268.06 217.68 271.65 210.43 284.95 210.43"/><rect class="cls-7" x="156.37" y="240.29" width="10.35" height="40.83"/><rect class="cls-12" x="164.37" y="240.29" width="2.35" height="40.83"/><rect class="cls-7" x="257.12" y="240.29" width="10.35" height="40.83"/><rect class="cls-12" x="264.41" y="240.29" width="3.06" height="40.83"/><rect class="cls-12" x="156.37" y="240.26" width="10.35" height="5.14"/><rect class="cls-12" x="257.12" y="240.26" width="10.35" height="5.14"/><rect class="cls-7" x="156.37" y="205.76" width="10.35" height="4.64"/><rect class="cls-12" x="164.37" y="205.76" width="2.35" height="4.64"/><rect class="cls-7" x="257.12" y="205.76" width="10.35" height="4.64"/><rect class="cls-12" x="264.41" y="205.76" width="3.06" height="4.64"/><rect class="cls-12" x="156.37" y="209.82" width="10.35" height="0.58"/><rect class="cls-12" x="257.12" y="209.82" width="10.35" height="0.58"/><polygon class="cls-5" points="164.26 210.43 149.45 240.29 138.08 240.29 138.08 236.17 150.85 210.43 164.26 210.43"/><polygon class="cls-5" points="181.05 210.43 166.24 240.29 179.65 240.29 194.46 210.43 181.05 210.43"/><polygon class="cls-5" points="224.66 210.43 209.85 240.29 196.44 240.29 211.25 210.43 224.66 210.43"/><polygon class="cls-5" points="254.85 210.43 240.04 240.29 226.64 240.29 241.45 210.43 254.85 210.43"/><polygon class="cls-5" points="271.65 210.43 256.84 240.29 270.24 240.29 284.95 210.63 271.65 210.43"/><polygon class="cls-13" points="164.26 210.43 160.66 217.68 147.25 217.68 150.85 210.43 164.26 210.43"/><polygon class="cls-13" points="194.46 210.43 190.87 217.68 177.46 217.68 181.05 210.43 194.46 210.43"/><polygon class="cls-13" points="224.66 210.43 221.06 217.68 207.66 217.68 211.25 210.43 224.66 210.43"/><polygon class="cls-13" points="254.85 210.43 251.26 217.68 237.86 217.68 241.45 210.43 254.85 210.43"/><polygon class="cls-13" points="284.95 210.63 281.45 217.68 268.06 217.68 271.65 210.43 284.95 210.63"/><rect class="cls-14" x="142.18" y="223.34" width="140.24" height="14.94"/><circle class="cls-8" cx="161.27" cy="199.28" r="9.23" transform="translate(-29.92 28.5) rotate(-9.24)"/><path class="cls-5" d="M165.46,199.28a4.19,4.19,0,1,0-4.19,4.18A4.19,4.19,0,0,0,165.46,199.28Z"/><circle class="cls-8" cx="262.23" cy="199.28" r="9.23" transform="translate(-28.61 44.71) rotate(-9.24)"/><path class="cls-5" d="M266.42,199.28a4.19,4.19,0,1,0-4.19,4.18A4.19,4.19,0,0,0,266.42,199.28Z"/><path class="cls-8" d="M370.31,278H323.53l7.16-17.34h0l2.87-7,.8-1.92,1.29-3.12.26-.64,2.88-7,.53-1.28,5.1-12.38a2.7,2.7,0,0,1,5,0l5.1,12.38.53,1.28,2.87,7,.27.64,1.29,3.12.79,1.92,2.88,7h0Z"/><polygon class="cls-10" points="326.6 270.52 323.53 277.95 370.31 277.95 367.25 270.52 326.6 270.52"/><rect class="cls-7" x="319.79" y="273.51" width="53.57" height="7.57"/><rect class="cls-12" x="361.79" y="273.51" width="11.57" height="7.57"/><path class="cls-10" d="M368.47,273.5h-6.62l-5.32-12.89h0l-2.87-7-.8-1.92-1.29-3.12-.26-.64-2.88-7-.53-1.27-4.28-10.42.8-2a2.7,2.7,0,0,1,5,0l5.1,12.38.53,1.27,2.87,7,.27.64,1.29,3.12.79,1.92,2.88,7h0Z"/><polygon class="cls-5" points="357.92 247.93 335.91 247.93 338.79 240.93 355.05 240.93 357.92 247.93"/><polygon class="cls-5" points="363.15 260.6 363.15 260.61 330.69 260.61 330.69 260.6 333.56 253.6 360.27 253.6 363.15 260.6"/><polygon class="cls-13" points="357.92 247.93 351.31 247.93 348.43 240.93 355.05 240.93 357.92 247.93"/><polygon class="cls-13" points="363.15 260.6 363.15 260.61 356.53 260.61 356.53 260.6 353.66 253.6 360.27 253.6 363.15 260.6"/><path class="cls-8" d="M100.18,278H53.4l7.16-17.34h0l2.88-7,.79-1.92,1.29-3.12.26-.64,2.88-7,.53-1.28,5.1-12.38a2.7,2.7,0,0,1,5,0l5.1,12.38.53,1.28,2.88,7,.26.64,1.29,3.12.8,1.92,2.87,7h0Z"/><polygon class="cls-10" points="56.47 270.52 53.41 277.95 100.18 277.95 97.12 270.52 56.47 270.52"/><rect class="cls-7" x="49.67" y="273.51" width="53.57" height="7.57"/><rect class="cls-12" x="91.66" y="273.51" width="11.57" height="7.57"/><path class="cls-10" d="M98.34,273.5H91.72l-5.31-12.89h0l-2.88-7-.79-1.92-1.3-3.12-.26-.64-2.88-7-.53-1.27-4.28-10.42.8-2a2.7,2.7,0,0,1,5,0l5.1,12.38.53,1.27,2.88,7,.26.64,1.29,3.12.8,1.92,2.87,7h0Z"/><polygon class="cls-5" points="87.8 247.93 65.78 247.93 68.66 240.93 84.92 240.93 87.8 247.93"/><polygon class="cls-5" points="93.02 260.6 93.02 260.61 60.56 260.61 60.56 260.6 63.44 253.6 90.15 253.6 93.02 260.6"/><polygon class="cls-13" points="87.8 247.93 81.18 247.93 78.3 240.93 84.92 240.93 87.8 247.93"/><polygon class="cls-13" points="93.02 260.6 93.02 260.61 86.41 260.61 86.41 260.6 83.53 253.6 90.15 253.6 93.02 260.6"/><path class="cls-4" d="M359,103a7,7,0,0,1-7-6,15,15,0,0,1-.12-1.9,14,14,0,0,1,13.95-14c.32,0,.63,0,.94,0a14.83,14.83,0,0,1,29.61,1.26c0,.36,0,.72-.05,1.08a14.7,14.7,0,0,1,7.92-1.86A14.88,14.88,0,0,1,418.32,95.4a1.09,1.09,0,0,1,0,.18,7.07,7.07,0,0,1-7.08,7.44Z"/><path class="cls-4" d="M25.85,114c-11,0-11.64-16.61-.62-17.15l.91,0a18.44,18.44,0,0,1,5.64.88,18.94,18.94,0,0,1,37.46.6,17.53,17.53,0,0,1,11.91-1.16C90.8,99.62,88.77,114,78.8,114Z"/><path class="cls-4" d="M158.41,32.13c-11,0-11.64-16.61-.62-17.14.3,0,.6,0,.91,0a18.49,18.49,0,0,1,5.64.88,18.93,18.93,0,0,1,37.45.6,17.26,17.26,0,0,1,7.53-1.71,17.5,17.5,0,0,1,4.37.55c9.64,2.48,7.62,16.84-2.34,16.84Z"/></g></g></g></svg>