<svg width="221" height="187" viewBox="0 0 221 187" fill="none" xmlns="http://www.w3.org/2000/svg">
<circle cx="109.727" cy="93.5" r="93.5" fill="#F0F0F0"/>
<path d="M40.1327 87.7639H38.6122V97.634H40.1327V94.2853H45.4413V96.4387C45.4413 96.8957 45.3739 97.3088 45.2391 97.6779C45.1043 98.0412 44.9286 98.3459 44.7118 98.592C44.5008 98.8381 44.2313 99.0519 43.9032 99.2336C43.575 99.4152 43.244 99.5558 42.91 99.6555C42.5819 99.7551 42.201 99.8342 41.7674 99.8928C41.3338 99.9514 40.9413 99.9894 40.5897 100.007C40.244 100.025 39.8514 100.033 39.412 100.033C39.0077 100.033 38.6385 100.025 38.3045 100.007C37.9706 99.9953 37.5838 99.9601 37.1444 99.9016C36.7108 99.843 36.3241 99.7639 35.9842 99.6642C35.6444 99.5646 35.2987 99.424 34.9471 99.2424C34.5956 99.0607 34.3055 98.8469 34.077 98.6008C33.8485 98.3547 33.661 98.0471 33.5145 97.6779C33.368 97.3088 33.2948 96.8928 33.2948 96.4299V88.9064C33.2948 88.4553 33.3622 88.048 33.4969 87.6848C33.6375 87.3156 33.8163 87.008 34.0331 86.7619C34.2557 86.5158 34.534 86.3019 34.868 86.1203C35.202 85.9328 35.536 85.7892 35.87 85.6896C36.2098 85.59 36.5965 85.5109 37.0301 85.4523C37.4637 85.3879 37.8563 85.3469 38.2079 85.3293C38.5653 85.3117 38.9579 85.3029 39.3856 85.3029C39.8426 85.3029 40.2469 85.3117 40.5985 85.3293C40.95 85.341 41.3456 85.3762 41.785 85.4348C42.2303 85.4933 42.6141 85.5724 42.9364 85.6721C43.2645 85.7658 43.5926 85.9035 43.9207 86.0851C44.2547 86.2668 44.5243 86.4807 44.7293 86.7267C44.9403 86.9728 45.1102 87.2805 45.2391 87.6496C45.3739 88.0187 45.4413 88.4348 45.4413 88.8976V91.0773H40.1327V87.7639ZM62.5367 97.6252H64.0572V85.6721H69.3746V96.4299C69.3746 96.8869 69.3043 97.3 69.1636 97.6691C69.0289 98.0324 68.8531 98.3371 68.6363 98.5832C68.4195 98.8293 68.1412 99.0432 67.8013 99.2248C67.4673 99.4064 67.1334 99.5471 66.7994 99.6467C66.4654 99.7463 66.0787 99.8254 65.6392 99.884C65.2056 99.9426 64.813 99.9807 64.4615 99.9982C64.1099 100.016 63.7173 100.025 63.2838 100.025C62.8795 100.025 62.5103 100.016 62.1763 99.9982C61.8423 99.9865 61.4586 99.9514 61.025 99.8928C60.5914 99.8342 60.2047 99.7551 59.8648 99.6555C59.5308 99.5558 59.191 99.4152 58.8453 99.2336C58.5054 99.0519 58.2213 98.8381 57.9927 98.592C57.7701 98.3459 57.5855 98.0383 57.439 97.6691C57.2984 97.2941 57.2281 96.8781 57.2281 96.4211V85.6633H62.5367V97.6252ZM86.7688 91.9387H88.2893V87.7463H86.7688V91.9387ZM90.3108 92.7209L90.3196 92.7736C91.4915 92.9084 92.3323 93.2482 92.8421 93.7932C93.3577 94.3322 93.6155 95.0148 93.6155 95.841V99.6818H88.2893V93.9777H86.7688V99.6818H81.4602V85.6633H89.4846C90.1468 85.6633 90.7122 85.7219 91.1809 85.8391C91.6555 85.9504 92.0686 86.1408 92.4202 86.4103C92.7776 86.6799 93.0413 87.049 93.2112 87.5178C93.387 87.9807 93.4749 88.549 93.4749 89.2228C93.4749 89.6389 93.4485 90.0051 93.3958 90.3215C93.343 90.632 93.2464 90.9308 93.1057 91.218C92.971 91.5051 92.7864 91.7482 92.552 91.9474C92.3177 92.1408 92.013 92.3049 91.638 92.4396C91.263 92.5744 90.8206 92.6682 90.3108 92.7209ZM111.484 88.4055H111.317L110.641 94.6193H112.205L111.484 88.4055ZM110.482 96.465L109.999 99.6818H104.849L107.415 85.6633H115.387L117.997 99.6818H112.838L112.363 96.465H110.482ZM140.331 85.6633V88.0275H137.202V99.6818H131.893V88.0275H128.791V85.6633H140.331ZM157.646 100.025C157.177 100.025 156.767 100.016 156.415 99.9982C156.064 99.9865 155.665 99.9514 155.22 99.8928C154.781 99.84 154.4 99.7639 154.078 99.6642C153.755 99.5646 153.43 99.4269 153.102 99.2512C152.774 99.0695 152.504 98.8557 152.293 98.6096C152.088 98.3635 151.921 98.0558 151.792 97.6867C151.664 97.3117 151.599 96.8928 151.599 96.4299V88.9064C151.599 88.4553 151.666 88.048 151.801 87.6848C151.936 87.3156 152.112 87.008 152.329 86.7619C152.545 86.5158 152.818 86.3019 153.146 86.1203C153.48 85.9387 153.814 85.798 154.148 85.6984C154.482 85.593 154.863 85.5109 155.29 85.4523C155.724 85.3937 156.117 85.3557 156.468 85.3381C156.826 85.3205 157.218 85.3117 157.646 85.3117C158.044 85.3117 158.411 85.3205 158.745 85.3381C159.079 85.3498 159.462 85.3849 159.896 85.4435C160.33 85.5021 160.716 85.5812 161.056 85.6808C161.396 85.7805 161.739 85.9211 162.084 86.1027C162.436 86.2844 162.726 86.4982 162.955 86.7443C163.189 86.9904 163.379 87.298 163.526 87.6672C163.672 88.0363 163.746 88.4494 163.746 88.9064V96.4299C163.746 96.8928 163.675 97.3088 163.535 97.6779C163.4 98.0471 163.224 98.3547 163.007 98.6008C162.79 98.8469 162.512 99.0607 162.172 99.2424C161.832 99.4182 161.498 99.5558 161.17 99.6555C160.842 99.7551 160.456 99.8312 160.01 99.884C159.565 99.9426 159.169 99.9807 158.824 99.9982C158.484 100.016 158.091 100.025 157.646 100.025ZM156.916 97.6164H158.437V87.7111H156.916V97.6164ZM181.096 91.9387H182.616V87.7463H181.096V91.9387ZM184.638 92.7209L184.647 92.7736C185.819 92.9084 186.659 93.2482 187.169 93.7932C187.685 94.3322 187.943 95.0148 187.943 95.841V99.6818H182.616V93.9777H181.096V99.6818H175.787V85.6633H183.812C184.474 85.6633 185.039 85.7219 185.508 85.8391C185.983 85.9504 186.396 86.1408 186.747 86.4103C187.105 86.6799 187.368 87.049 187.538 87.5178C187.714 87.9807 187.802 88.549 187.802 89.2228C187.802 89.6389 187.776 90.0051 187.723 90.3215C187.67 90.632 187.573 90.9308 187.433 91.218C187.298 91.5051 187.113 91.7482 186.879 91.9474C186.645 92.1408 186.34 92.3049 185.965 92.4396C185.59 92.5744 185.148 92.6682 184.638 92.7209Z" fill="#161201"/>
</svg>
